<svg xmlns="http://www.w3.org/2000/svg" viewBox="0 0 418.84 114.67"><defs><style>.cls-1{fill:#fff;}</style></defs><g id="Layer_2" data-name="Layer 2"><g id="Layer_2-2" data-name="Layer 2"><path class="cls-1" d="M171.5,26.39a11,11,0,0,1,2.23,7.13q0,7-4,9.95a16.21,16.21,0,0,1-9.89,3H143.66a3,3,0,0,1-3-3V5.52a2.9,2.9,0,0,1,.88-2.13,2.87,2.87,0,0,1,2.13-.88h16.13q5.72,0,8.7,2.83c2,1.88,3,4.6,3,8.16A10,10,0,0,1,170,18.86a9.28,9.28,0,0,1-4.2,3.61A12.46,12.46,0,0,1,171.5,26.39ZM163.4,10a6.18,6.18,0,0,0-4.49-1.54H147.05V20.65h12A6.22,6.22,0,0,0,163.31,19,6,6,0,0,0,165,14.44,5.92,5.92,0,0,0,163.4,10Zm1.85,28.94a6.71,6.71,0,0,0,2.08-5.37q0-7-7.91-7H147.05V40.67h12.68A8.16,8.16,0,0,0,165.25,38.89Z"/><path class="cls-1" d="M180.91,8.44a2.6,2.6,0,0,1-.78-2.1v-1A2.48,2.48,0,0,1,181,3.2a4.35,4.35,0,0,1,2.6-.63,3.93,3.93,0,0,1,2.54.66,2.58,2.58,0,0,1,.79,2.11v1a2.5,2.5,0,0,1-.82,2.13,4.2,4.2,0,0,1-2.57.63A4.09,4.09,0,0,1,180.91,8.44Zm4.78,37.13a2.88,2.88,0,0,1-2.17.88,2.77,2.77,0,0,1-2.1-.88,2.93,2.93,0,0,1-.85-2.13V16.26a3,3,0,0,1,.85-2.14,2.81,2.81,0,0,1,2.1-.88,2.92,2.92,0,0,1,2.17.88,3,3,0,0,1,.84,2.14V43.44A3,3,0,0,1,185.69,45.57Z"/><path class="cls-1" d="M222.94,43.44a2.71,2.71,0,0,1-1,2.1,3.11,3.11,0,0,1-2,.85,2.67,2.67,0,0,1-2.2-1L205.36,32.26l-3.76,3.39v7.79a3,3,0,0,1-.85,2.13,2.8,2.8,0,0,1-2.1.88,2.88,2.88,0,0,1-2.17-.88,3,3,0,0,1-.85-2.13V3a3,3,0,0,1,.85-2.13A2.88,2.88,0,0,1,198.65,0a2.8,2.8,0,0,1,2.1.88A3,3,0,0,1,201.6,3V28.5L217,14.37a3.33,3.33,0,0,1,2.19-.94,2.7,2.7,0,0,1,2,.91,2.79,2.79,0,0,1,.88,1.92,2.93,2.93,0,0,1-1.2,2.26L210,28.18,222,41.24A3.18,3.18,0,0,1,222.94,43.44Z"/><path class="cls-1" d="M256.52,30.66a3,3,0,0,1-2.07.79h-22.1a11,11,0,0,0,3.49,7.34,10.68,10.68,0,0,0,7.44,2.76,11.56,11.56,0,0,0,4.89-.88,12.06,12.06,0,0,0,3.33-2.25,3.51,3.51,0,0,1,1.82-.57,2.39,2.39,0,0,1,1.79.75,2.48,2.48,0,0,1,.72,1.76,3.1,3.1,0,0,1-1.26,2.39,14.65,14.65,0,0,1-4.83,3.07,15.81,15.81,0,0,1-6.15,1.26,18.15,18.15,0,0,1-9-2.14,14.87,14.87,0,0,1-6-6,17.7,17.7,0,0,1-2.1-8.66,19.13,19.13,0,0,1,2.16-9.26,15.68,15.68,0,0,1,5.72-6.12,14.67,14.67,0,0,1,15.16-.06,15.68,15.68,0,0,1,5.64,5.71,16.22,16.22,0,0,1,2.2,8.16A2.65,2.65,0,0,1,256.52,30.66ZM236,20.31a9.74,9.74,0,0,0-3.39,6.12h18.52v-.51a7.69,7.69,0,0,0-3-5.46,9.46,9.46,0,0,0-6.06-2.13A9.71,9.71,0,0,0,236,20.31Z"/><path class="cls-1" d="M311.06,5.46a18.15,18.15,0,0,1,6.34,7.94,27.79,27.79,0,0,1,2.14,11.08,27.94,27.94,0,0,1-2.14,11.14,18,18,0,0,1-6.34,7.91A17.23,17.23,0,0,1,301,46.45H285.52a3,3,0,0,1-3-3V5.52a2.93,2.93,0,0,1,.87-2.13,2.91,2.91,0,0,1,2.14-.88H301A17.11,17.11,0,0,1,311.06,5.46Zm-1.13,30.66q3.21-4.54,3.21-11.64T309.9,12.87q-3.22-4.59-9.57-4.58H288.72V40.67h11.61Q306.74,40.67,309.93,36.12Z"/><path class="cls-1" d="M355.6,14a3,3,0,0,1,.85,2.22V43.44a3,3,0,0,1-.85,2.13,2.88,2.88,0,0,1-2.17.88,2.81,2.81,0,0,1-2.13-.85,3,3,0,0,1-.82-2.16V41.8A13.36,13.36,0,0,1,346,45.54a12.64,12.64,0,0,1-6.09,1.54,14.17,14.17,0,0,1-7.75-2.2,14.91,14.91,0,0,1-5.46-6.12,19.27,19.27,0,0,1-2-8.82,19.33,19.33,0,0,1,2-8.82A15.11,15.11,0,0,1,332.16,15a14.3,14.3,0,0,1,13.77-.81,12.76,12.76,0,0,1,4.55,3.51V16.19A3.11,3.11,0,0,1,351.3,14a2.76,2.76,0,0,1,2.13-.88A2.93,2.93,0,0,1,355.6,14Zm-9.73,26.08a10.22,10.22,0,0,0,3.58-4.15,13.35,13.35,0,0,0,1.29-6,13.27,13.27,0,0,0-1.29-5.9,10.35,10.35,0,0,0-3.58-4.17,9.15,9.15,0,0,0-5.24-1.54,9.32,9.32,0,0,0-5.24,1.5A10.22,10.22,0,0,0,331.81,24a13.38,13.38,0,0,0-1.29,6,13.35,13.35,0,0,0,1.29,6,10.22,10.22,0,0,0,3.58,4.15,9.9,9.9,0,0,0,10.48,0Z"/><path class="cls-1" d="M374.21,19.4V38.1c0,2.09.94,3.14,2.82,3.14a4.39,4.39,0,0,0,1.2-.22,4.39,4.39,0,0,1,1.19-.22,1.73,1.73,0,0,1,1.38.69,2.63,2.63,0,0,1-.94,4,6.22,6.22,0,0,1-3.39.94,15.54,15.54,0,0,1-3.8-.44,5.63,5.63,0,0,1-3.07-2.23,9,9,0,0,1-1.35-5.43v-19h-3.64a2.68,2.68,0,0,1-2.76-2.77,2.58,2.58,0,0,1,.78-1.94,2.75,2.75,0,0,1,2-.76h3.64V8.66a3,3,0,0,1,.84-2.13,2.88,2.88,0,0,1,2.17-.88,2.77,2.77,0,0,1,2.1.88,2.93,2.93,0,0,1,.85,2.13v5.27h5.21a2.72,2.72,0,0,1,2,.79,2.68,2.68,0,0,1,.78,2,2.58,2.58,0,0,1-.78,1.94,2.78,2.78,0,0,1-2,.76Z"/><path class="cls-1" d="M418,14a3,3,0,0,1,.85,2.22V43.44a2.93,2.93,0,0,1-.85,2.13,2.86,2.86,0,0,1-2.16.88,2.82,2.82,0,0,1-2.14-.85,3,3,0,0,1-.81-2.16V41.8a13.5,13.5,0,0,1-4.46,3.74,12.58,12.58,0,0,1-6.09,1.54,14.17,14.17,0,0,1-7.75-2.2,15,15,0,0,1-5.46-6.12,19.27,19.27,0,0,1-2-8.82,19.33,19.33,0,0,1,2-8.82A15.18,15.18,0,0,1,394.55,15a14.3,14.3,0,0,1,13.77-.81,12.8,12.8,0,0,1,4.56,3.51V16.19a3.11,3.11,0,0,1,.81-2.19,2.77,2.77,0,0,1,2.14-.88A2.91,2.91,0,0,1,418,14Zm-9.73,26.08a10.22,10.22,0,0,0,3.58-4.15,13.35,13.35,0,0,0,1.29-6,13.27,13.27,0,0,0-1.29-5.9,10.35,10.35,0,0,0-3.58-4.17A9.15,9.15,0,0,0,403,18.33a9.35,9.35,0,0,0-5.24,1.5A10.22,10.22,0,0,0,394.2,24a13.38,13.38,0,0,0-1.29,6,13.35,13.35,0,0,0,1.29,6,10.22,10.22,0,0,0,3.58,4.15,9.9,9.9,0,0,0,10.48,0Z"/><path class="cls-1" d="M166.64,61.63a11.87,11.87,0,0,1,3.26,8.66,13.63,13.63,0,0,1-1.48,6.38,10.79,10.79,0,0,1-4.17,4.45,11.92,11.92,0,0,1-6.21,1.6H144.35V101a1.15,1.15,0,0,1-.41.88,1.29,1.29,0,0,1-.91.37,1.28,1.28,0,0,1-.94-.37,1.21,1.21,0,0,1-.37-.88V59.56A1.26,1.26,0,0,1,143,58.31H158A11.55,11.55,0,0,1,166.64,61.63Zm-1.89,15.79a10.23,10.23,0,0,0,2.51-7.13,9.51,9.51,0,0,0-2.48-6.9A8.9,8.9,0,0,0,158,60.82H144.35V80.21H158A8.58,8.58,0,0,0,164.75,77.42Z"/><path class="cls-1" d="M195,71.36a1.41,1.41,0,0,1-.32.94,1,1,0,0,1-.81.38,3.5,3.5,0,0,1-.91-.28,4.21,4.21,0,0,0-1.54-.28,8.29,8.29,0,0,0-5.15,2,15.72,15.72,0,0,0-4.2,5.14,12.87,12.87,0,0,0-1.64,6V101a1.26,1.26,0,0,1-1.25,1.25,1.17,1.17,0,0,1-.91-.37,1.27,1.27,0,0,1-.35-.88V72.18a1.3,1.3,0,0,1,1.26-1.26,1.19,1.19,0,0,1,.91.38,1.25,1.25,0,0,1,.34.88v6.65a15,15,0,0,1,4.49-6.34,11.25,11.25,0,0,1,7.19-2.57C194,69.92,195,70.4,195,71.36Z"/><path class="cls-1" d="M226.39,94.81a15.3,15.3,0,0,1-5.55,5.9,15.45,15.45,0,0,1-15.76,0,15.45,15.45,0,0,1-5.59-5.94,18.21,18.21,0,0,1,0-16.75,15.52,15.52,0,0,1,5.56-5.94,15.51,15.51,0,0,1,15.79,0A15.2,15.2,0,0,1,226.39,78a18.54,18.54,0,0,1,0,16.79Zm-2.16-15.6a12.74,12.74,0,0,0-4.62-5,12.76,12.76,0,0,0-13.27,0,12.88,12.88,0,0,0-4.68,5,16.12,16.12,0,0,0,0,14.37,12.88,12.88,0,0,0,4.68,5,12.23,12.23,0,0,0,6.62,1.86,12.44,12.44,0,0,0,6.65-1.82,12.57,12.57,0,0,0,4.62-5.06,16.44,16.44,0,0,0,0-14.4Z"/><path class="cls-1" d="M230.47,114.36a1.1,1.1,0,0,1-.31-.82v-.12a1.13,1.13,0,0,1,.31-.79,1.32,1.32,0,0,1,.82-.41,8.59,8.59,0,0,0,4.3-1.94,5.47,5.47,0,0,0,1.85-4.4V72.12a1.25,1.25,0,0,1,.34-.88,1.19,1.19,0,0,1,.91-.38,1.18,1.18,0,0,1,.91.38,1.26,1.26,0,0,1,.35.88v33.76a8,8,0,0,1-1.38,4.65,9.57,9.57,0,0,1-3.39,3.08,8.2,8.2,0,0,1-3.83,1.06A1.18,1.18,0,0,1,230.47,114.36ZM237.09,65a1.86,1.86,0,0,1-.59-1.44v-.5a1.86,1.86,0,0,1,.62-1.45,2.4,2.4,0,0,1,1.64-.56,2.09,2.09,0,0,1,1.47.56,1.91,1.91,0,0,1,.6,1.45v.5a1.87,1.87,0,0,1-.6,1.44,2.14,2.14,0,0,1-1.54.57A2.22,2.22,0,0,1,237.09,65Z"/><path class="cls-1" d="M279,95.06a1.12,1.12,0,0,1,.31.78,1.13,1.13,0,0,1-.25.75,16.56,16.56,0,0,1-5.14,4.52,13,13,0,0,1-6.59,1.76,17,17,0,0,1-8.35-2,14.19,14.19,0,0,1-5.68-5.71,17.53,17.53,0,0,1-2-8.6,19,19,0,0,1,2-8.82,14.46,14.46,0,0,1,5.25-5.8,13,13,0,0,1,7-2,15,15,0,0,1,6.88,1.6,13,13,0,0,1,5.17,4.8,15.47,15.47,0,0,1,2.14,7.91,1.32,1.32,0,0,1-.38.91,1.16,1.16,0,0,1-.88.41H253.69v.81a16.2,16.2,0,0,0,1.57,7.13,12.08,12.08,0,0,0,4.65,5.11,13.88,13.88,0,0,0,7.41,1.89A11.52,11.52,0,0,0,273,99a11.74,11.74,0,0,0,4.17-3.73,1.31,1.31,0,0,1,1.07-.57A1,1,0,0,1,279,95.06Zm-18.3-21.41a12.5,12.5,0,0,0-4.26,3.64A13.33,13.33,0,0,0,254,83.16H277V82.6a10.53,10.53,0,0,0-2-5.49,11.32,11.32,0,0,0-4.26-3.49,12.47,12.47,0,0,0-5.31-1.19A10.51,10.51,0,0,0,260.69,73.65Z"/><path class="cls-1" d="M306.7,70.55a12.54,12.54,0,0,1,4.08,1.66c1,.69,1.54,1.41,1.54,2.17a1.25,1.25,0,0,1-.35.87,1.1,1.1,0,0,1-.84.38,1.51,1.51,0,0,1-.85-.19,4.87,4.87,0,0,1-.78-.69,5.56,5.56,0,0,0-1.7-1.38,15.4,15.4,0,0,0-6.4-1.07,12.28,12.28,0,0,0-6.62,1.89,13.75,13.75,0,0,0-4.84,5.11,14.39,14.39,0,0,0-1.79,7.06,15.58,15.58,0,0,0,1.67,7.25,12.35,12.35,0,0,0,4.7,5.06,13.2,13.2,0,0,0,6.88,1.82,14.19,14.19,0,0,0,4-.44,14.49,14.49,0,0,0,2.89-1.26A10,10,0,0,0,310,97.41a4.22,4.22,0,0,1,.63-.53,1,1,0,0,1,.62-.22A1,1,0,0,1,312,97a1.17,1.17,0,0,1,.28.82q0,.87-1.44,2.1a12.28,12.28,0,0,1-4,2.1,17.19,17.19,0,0,1-5.68.88,15.39,15.39,0,0,1-8.07-2.13,14.75,14.75,0,0,1-5.52-5.9,18,18,0,0,1-2-8.48,17.27,17.27,0,0,1,2-8.16,15.42,15.42,0,0,1,5.59-6,15.16,15.16,0,0,1,8.25-2.26A21.67,21.67,0,0,1,306.7,70.55Z"/><path class="cls-1" d="M332.53,71.05a1.14,1.14,0,0,1,.38.81,1.2,1.2,0,0,1-1.2,1.2h-6.9V95.4c0,1.84.32,3.07,1,3.67a3.48,3.48,0,0,0,2.48.91,3.11,3.11,0,0,0,.72-.12,3.46,3.46,0,0,1,.79-.13,1,1,0,0,1,.75.35,1.13,1.13,0,0,1,.32.78c0,.38-.26.7-.76,1a3.66,3.66,0,0,1-1.76.4,13,13,0,0,1-2.63-.22,4.15,4.15,0,0,1-2.23-1.69c-.77-1-1.16-2.58-1.16-4.8V73.06h-5.15a1.2,1.2,0,0,1-.85-2,1.17,1.17,0,0,1,.85-.35h5.15v-8a1.22,1.22,0,0,1,.38-.88,1.2,1.2,0,0,1,.87-.38,1.21,1.21,0,0,1,.92.38,1.31,1.31,0,0,1,.34.88v8h6.9A1.14,1.14,0,0,1,332.53,71.05Z"/><circle class="cls-1" cx="66.3" cy="9.37" r="7.95"/><path class="cls-1" d="M66.3,17.59a8.22,8.22,0,1,1,8.22-8.22A8.23,8.23,0,0,1,66.3,17.59Zm0-15.9A7.68,7.68,0,1,0,74,9.37,7.69,7.69,0,0,0,66.3,1.69Z"/><path class="cls-1" d="M24,106.86a24,24,0,1,1,24-24A24,24,0,0,1,24,106.86Zm0-44.23A20.24,20.24,0,1,0,44.24,82.86,20.25,20.25,0,0,0,24,62.63Z"/><path class="cls-1" d="M93.39,106.86a24,24,0,1,1,24-24A24,24,0,0,1,93.39,106.86Zm0-44.23a20.24,20.24,0,1,0,20.23,20.23A20.25,20.25,0,0,0,93.39,62.63Z"/><circle class="cls-1" cx="60.8" cy="68.87" r="5.5"/><circle class="cls-1" cx="57.14" cy="29.4" r="4.95"/><circle class="cls-1" cx="42.62" cy="49.2" r="5.5"/><path class="cls-1" d="M60.59,63.37c-4.39-.87-11.73-8.66-12.47-14.55-2.37.86-5.32,5.61-5.5,5.89,3.41.63,11.6,7.79,12.67,14.16C57,66.88,60.59,63.37,60.59,63.37Z"/><path class="cls-1" d="M52.19,29.4C52,34.49,48.33,41,41.05,43.93c-2.44,1.65,4.81,3.76,7.07,4.89.49-6.43,4.59-10.72,10.24-14.62C58.47,30.47,52.19,29.4,52.19,29.4Z"/><circle class="cls-1" cx="85.71" cy="40.15" r="4.95"/><circle class="cls-1" cx="57.77" cy="95.79" r="5.5"/><path class="cls-1" d="M62.46,92.91c-1.66-5-1.66-16.19,2.08-20-2.14-1.34-8.05-1.12-8.39-1.09,2.67,2.55,2.79,13.14-1.93,19.77C58.35,92.42,62.46,92.91,62.46,92.91Z"/><path class="cls-1" d="M61.28,26.68c3.58,4.81,17.18,8.94,22.84,8.78,1.59,3.65-2.78,7-2.78,7C76.45,36.76,68.8,33.7,59.5,33.75,58.66,31.09,61.28,26.68,61.28,26.68Z"/></g></g></svg>