<svg width="34" height="34" viewBox="0 0 34 34" fill="none" xmlns="http://www.w3.org/2000/svg">
<path d="M17 2.83333C24.8115 2.83333 31.1667 9.1885 31.1667 17C31.1667 24.8115 24.8115 31.1667 17 31.1667C9.1885 31.1667 2.83333 24.8115 2.83333 17C2.83333 9.1885 9.1885 2.83333 17 2.83333ZM17 0C7.61175 0 0 7.61175 0 17C0 26.3882 7.61175 34 17 34C26.3882 34 34 26.3882 34 17C34 7.61175 26.3882 0 17 0ZM14.1667 14.1667H11.3333V17H14.1667V25.5H18.4167V17H20.995L21.25 14.1667H18.4167V12.9866C18.4167 12.3094 18.5527 12.0417 19.2072 12.0417H21.25V8.5H17.8443C15.2972 8.5 14.1667 9.622 14.1667 11.7697V14.1667Z" fill="white"/>
</svg>
