<?xml version="1.0" encoding="utf-8"?>
<!-- Generator: Adobe Illustrator 24.1.2, SVG Export Plug-In . SVG Version: 6.00 Build 0)  -->
<svg version="1.1" id="Layer_1" xmlns="http://www.w3.org/2000/svg" xmlns:xlink="http://www.w3.org/1999/xlink" x="0px" y="0px"
	 viewBox="0 0 24 24" style="enable-background:new 0 0 24 24;" xml:space="preserve">
<style type="text/css">
	.st0{fill-rule:evenodd;clip-rule:evenodd;fill:#FFFFFF;}
</style>
<path class="st0" d="M12,0C5.4,0,0,5.4,0,12s5.4,12,12,12s12-5.4,12-12S18.6,0,12,0z M12,2c5.5,0,10,4.5,10,10s-4.5,10-10,10
	S2,17.5,2,12S6.5,2,12,2z M17.3,14.1l-1.2,0.4l0.4,1.3c0.2,0.5-0.1,1.1-0.6,1.2c-0.6,0.2-1.1-0.2-1.2-0.6l-0.4-1.3L11.8,16l0.4,1.3
	c0.2,0.6-0.2,1.3-0.9,1.3c-0.4,0-0.8-0.3-0.9-0.7l-0.4-1.3L8.7,17c-0.6,0.2-1.1-0.2-1.2-0.6c-0.2-0.5,0.1-1.1,0.6-1.2l1.2-0.4
	l-0.8-2.4l-1.2,0.4C6.6,12.9,6,12.4,6,11.8c0-0.4,0.3-0.8,0.7-0.9l1.2-0.4L7.5,9.2C7.3,8.7,7.6,8.2,8.1,8c0.5-0.2,1.1,0.1,1.2,0.6
	l0.4,1.3L12.2,9l-0.4-1.3c-0.2-0.6,0.2-1.3,0.9-1.3c0.4,0,0.8,0.3,0.9,0.7l0.4,1.3L15.3,8c0.5-0.2,1.1,0.1,1.2,0.6
	c0.2,0.5-0.1,1.1-0.6,1.2l-1.2,0.4l0.8,2.4l1.2-0.4c0.6-0.2,1.3,0.2,1.3,0.9C18,13.6,17.7,14,17.3,14.1z M12.8,10.9l-2.5,0.8
	l0.8,2.4l2.5-0.8C13.7,13.3,12.8,10.9,12.8,10.9z"/>
</svg>
