<svg width="34" height="34" viewBox="0 0 34 34" fill="none" xmlns="http://www.w3.org/2000/svg">
<path d="M17 2.83333C24.8115 2.83333 31.1667 9.1885 31.1667 17C31.1667 24.8115 24.8115 31.1667 17 31.1667C9.1885 31.1667 2.83333 24.8115 2.83333 17C2.83333 9.1885 9.1885 2.83333 17 2.83333ZM17 0C7.61175 0 0 7.61175 0 17C0 26.3882 7.61175 34 17 34C26.3882 34 34 26.3882 34 17C34 7.61175 26.3882 0 17 0ZM26.2083 12.4355C25.5836 12.7132 24.9107 12.9002 24.2052 12.9852C24.9263 12.5531 25.4773 11.8702 25.7394 11.0557C25.0651 11.4552 24.3185 11.7456 23.5237 11.9014C22.8891 11.2228 21.981 10.7992 20.9794 10.7992C18.7269 10.7992 17.0722 12.9002 17.5808 15.0818C14.6837 14.9359 12.1125 13.5476 10.3927 11.4382C9.47892 13.005 9.9195 15.0563 11.4722 16.0947C10.9012 16.0763 10.3643 15.9191 9.894 15.6584C9.85575 17.2734 11.0146 18.785 12.6919 19.1222C12.2017 19.2553 11.6634 19.2865 11.1166 19.1817C11.56 20.5672 12.8506 21.5744 14.3749 21.6027C12.9058 22.7531 11.0599 23.2673 9.20833 23.0492C10.7525 24.0394 12.5842 24.616 14.5534 24.616C21.0304 24.616 24.6882 19.1462 24.4672 14.2403C25.1501 13.7502 25.7408 13.1353 26.2083 12.4355Z" fill="white"/>
</svg>
